<mxfile host="Electron" agent="Mozilla/5.0 (Windows NT 10.0; Win64; x64) AppleWebKit/537.36 (KHTML, like Gecko) draw.io/27.0.2 Chrome/134.0.6998.205 Electron/35.3.0 Safari/537.36" version="27.0.2">
  <diagram name="Page-1" id="YcMMNKAKNxy85oWmaL89">
    <mxGraphModel dx="602" dy="736" grid="1" gridSize="10" guides="1" tooltips="1" connect="1" arrows="1" fold="1" page="1" pageScale="1" pageWidth="827" pageHeight="1169" math="0" shadow="0">
      <root>
        <mxCell id="0" />
        <mxCell id="1" parent="0" />
        <mxCell id="Xd-AMBOE0FcjAjWwS7xK-4" style="edgeStyle=orthogonalEdgeStyle;rounded=0;orthogonalLoop=1;jettySize=auto;html=1;exitX=0.5;exitY=1;exitDx=0;exitDy=0;entryX=0.5;entryY=0;entryDx=0;entryDy=0;" edge="1" parent="1" source="Xd-AMBOE0FcjAjWwS7xK-1" target="Xd-AMBOE0FcjAjWwS7xK-2">
          <mxGeometry relative="1" as="geometry" />
        </mxCell>
        <mxCell id="Xd-AMBOE0FcjAjWwS7xK-1" value="" style="ellipse;fillColor=strokeColor;html=1;" vertex="1" parent="1">
          <mxGeometry x="413" y="50" width="30" height="30" as="geometry" />
        </mxCell>
        <mxCell id="Xd-AMBOE0FcjAjWwS7xK-5" style="edgeStyle=orthogonalEdgeStyle;rounded=0;orthogonalLoop=1;jettySize=auto;html=1;exitX=0.5;exitY=1;exitDx=0;exitDy=0;entryX=0.5;entryY=0;entryDx=0;entryDy=0;" edge="1" parent="1" source="Xd-AMBOE0FcjAjWwS7xK-2" target="Xd-AMBOE0FcjAjWwS7xK-3">
          <mxGeometry relative="1" as="geometry" />
        </mxCell>
        <mxCell id="Xd-AMBOE0FcjAjWwS7xK-6" value="Acknowledge Receipt" style="edgeLabel;html=1;align=center;verticalAlign=middle;resizable=0;points=[];" vertex="1" connectable="0" parent="Xd-AMBOE0FcjAjWwS7xK-5">
          <mxGeometry x="-0.3042" y="-4" relative="1" as="geometry">
            <mxPoint as="offset" />
          </mxGeometry>
        </mxCell>
        <mxCell id="Xd-AMBOE0FcjAjWwS7xK-2" value="Complaint Received" style="html=1;align=center;verticalAlign=top;rounded=1;absoluteArcSize=1;arcSize=10;dashed=0;whiteSpace=wrap;" vertex="1" parent="1">
          <mxGeometry x="367" y="140" width="122" height="30" as="geometry" />
        </mxCell>
        <mxCell id="Xd-AMBOE0FcjAjWwS7xK-8" style="edgeStyle=orthogonalEdgeStyle;rounded=0;orthogonalLoop=1;jettySize=auto;html=1;exitX=1;exitY=1;exitDx=0;exitDy=0;entryX=0;entryY=0;entryDx=0;entryDy=0;" edge="1" parent="1" source="Xd-AMBOE0FcjAjWwS7xK-3" target="Xd-AMBOE0FcjAjWwS7xK-7">
          <mxGeometry relative="1" as="geometry" />
        </mxCell>
        <mxCell id="Xd-AMBOE0FcjAjWwS7xK-9" value="Investigation" style="edgeLabel;html=1;align=center;verticalAlign=middle;resizable=0;points=[];" vertex="1" connectable="0" parent="Xd-AMBOE0FcjAjWwS7xK-8">
          <mxGeometry x="0.0065" y="2" relative="1" as="geometry">
            <mxPoint as="offset" />
          </mxGeometry>
        </mxCell>
        <mxCell id="Xd-AMBOE0FcjAjWwS7xK-26" style="edgeStyle=orthogonalEdgeStyle;rounded=0;orthogonalLoop=1;jettySize=auto;html=1;exitX=0;exitY=0.5;exitDx=0;exitDy=0;entryX=0.25;entryY=0;entryDx=0;entryDy=0;" edge="1" parent="1" source="Xd-AMBOE0FcjAjWwS7xK-3" target="Xd-AMBOE0FcjAjWwS7xK-25">
          <mxGeometry relative="1" as="geometry" />
        </mxCell>
        <mxCell id="Xd-AMBOE0FcjAjWwS7xK-28" value="Serious Issue" style="edgeLabel;html=1;align=center;verticalAlign=middle;resizable=0;points=[];" vertex="1" connectable="0" parent="Xd-AMBOE0FcjAjWwS7xK-26">
          <mxGeometry x="0.2208" y="4" relative="1" as="geometry">
            <mxPoint y="-1" as="offset" />
          </mxGeometry>
        </mxCell>
        <mxCell id="Xd-AMBOE0FcjAjWwS7xK-3" value="Initial Review" style="html=1;align=center;verticalAlign=top;rounded=1;absoluteArcSize=1;arcSize=10;dashed=0;whiteSpace=wrap;" vertex="1" parent="1">
          <mxGeometry x="377" y="240" width="102" height="30" as="geometry" />
        </mxCell>
        <mxCell id="Xd-AMBOE0FcjAjWwS7xK-11" style="edgeStyle=orthogonalEdgeStyle;rounded=0;orthogonalLoop=1;jettySize=auto;html=1;exitX=0.5;exitY=1;exitDx=0;exitDy=0;entryX=0.5;entryY=0;entryDx=0;entryDy=0;" edge="1" parent="1" source="Xd-AMBOE0FcjAjWwS7xK-7" target="Xd-AMBOE0FcjAjWwS7xK-10">
          <mxGeometry relative="1" as="geometry" />
        </mxCell>
        <mxCell id="Xd-AMBOE0FcjAjWwS7xK-12" value="Gather evidence" style="edgeLabel;html=1;align=center;verticalAlign=middle;resizable=0;points=[];" vertex="1" connectable="0" parent="Xd-AMBOE0FcjAjWwS7xK-11">
          <mxGeometry x="-0.1529" y="-4" relative="1" as="geometry">
            <mxPoint as="offset" />
          </mxGeometry>
        </mxCell>
        <mxCell id="Xd-AMBOE0FcjAjWwS7xK-7" value="Evidence Collection" style="html=1;align=center;verticalAlign=top;rounded=1;absoluteArcSize=1;arcSize=10;dashed=0;whiteSpace=wrap;" vertex="1" parent="1">
          <mxGeometry x="530" y="310" width="120" height="30" as="geometry" />
        </mxCell>
        <mxCell id="Xd-AMBOE0FcjAjWwS7xK-14" style="edgeStyle=orthogonalEdgeStyle;rounded=0;orthogonalLoop=1;jettySize=auto;html=1;exitX=0.5;exitY=1;exitDx=0;exitDy=0;entryX=0.5;entryY=0;entryDx=0;entryDy=0;" edge="1" parent="1" source="Xd-AMBOE0FcjAjWwS7xK-10" target="Xd-AMBOE0FcjAjWwS7xK-13">
          <mxGeometry relative="1" as="geometry" />
        </mxCell>
        <mxCell id="Xd-AMBOE0FcjAjWwS7xK-17" value="Consult Driver" style="edgeLabel;html=1;align=center;verticalAlign=middle;resizable=0;points=[];" vertex="1" connectable="0" parent="Xd-AMBOE0FcjAjWwS7xK-14">
          <mxGeometry x="-0.0118" y="-2" relative="1" as="geometry">
            <mxPoint as="offset" />
          </mxGeometry>
        </mxCell>
        <mxCell id="Xd-AMBOE0FcjAjWwS7xK-10" value="Driver Consulation" style="html=1;align=center;verticalAlign=top;rounded=1;absoluteArcSize=1;arcSize=10;dashed=0;whiteSpace=wrap;" vertex="1" parent="1">
          <mxGeometry x="530" y="390" width="120" height="30" as="geometry" />
        </mxCell>
        <mxCell id="Xd-AMBOE0FcjAjWwS7xK-16" style="edgeStyle=orthogonalEdgeStyle;rounded=0;orthogonalLoop=1;jettySize=auto;html=1;exitX=0.5;exitY=1;exitDx=0;exitDy=0;entryX=0.5;entryY=0;entryDx=0;entryDy=0;" edge="1" parent="1" source="Xd-AMBOE0FcjAjWwS7xK-13" target="Xd-AMBOE0FcjAjWwS7xK-15">
          <mxGeometry relative="1" as="geometry" />
        </mxCell>
        <mxCell id="Xd-AMBOE0FcjAjWwS7xK-18" value="Prepare Response" style="edgeLabel;html=1;align=center;verticalAlign=middle;resizable=0;points=[];" vertex="1" connectable="0" parent="Xd-AMBOE0FcjAjWwS7xK-16">
          <mxGeometry x="-0.1923" y="2" relative="1" as="geometry">
            <mxPoint as="offset" />
          </mxGeometry>
        </mxCell>
        <mxCell id="Xd-AMBOE0FcjAjWwS7xK-13" value="Analysis" style="html=1;align=center;verticalAlign=top;rounded=1;absoluteArcSize=1;arcSize=10;dashed=0;whiteSpace=wrap;" vertex="1" parent="1">
          <mxGeometry x="545" y="470" width="90" height="30" as="geometry" />
        </mxCell>
        <mxCell id="Xd-AMBOE0FcjAjWwS7xK-20" style="edgeStyle=orthogonalEdgeStyle;rounded=0;orthogonalLoop=1;jettySize=auto;html=1;exitX=0.5;exitY=1;exitDx=0;exitDy=0;entryX=0.5;entryY=0;entryDx=0;entryDy=0;" edge="1" parent="1" source="Xd-AMBOE0FcjAjWwS7xK-15" target="Xd-AMBOE0FcjAjWwS7xK-19">
          <mxGeometry relative="1" as="geometry" />
        </mxCell>
        <mxCell id="Xd-AMBOE0FcjAjWwS7xK-21" value="Send Response" style="edgeLabel;html=1;align=center;verticalAlign=middle;resizable=0;points=[];" vertex="1" connectable="0" parent="Xd-AMBOE0FcjAjWwS7xK-20">
          <mxGeometry x="-0.0197" y="2" relative="1" as="geometry">
            <mxPoint as="offset" />
          </mxGeometry>
        </mxCell>
        <mxCell id="Xd-AMBOE0FcjAjWwS7xK-15" value="Response Creation" style="html=1;align=center;verticalAlign=top;rounded=1;absoluteArcSize=1;arcSize=10;dashed=0;whiteSpace=wrap;" vertex="1" parent="1">
          <mxGeometry x="530" y="567" width="120" height="35" as="geometry" />
        </mxCell>
        <mxCell id="Xd-AMBOE0FcjAjWwS7xK-23" style="edgeStyle=orthogonalEdgeStyle;rounded=0;orthogonalLoop=1;jettySize=auto;html=1;exitX=0.5;exitY=1;exitDx=0;exitDy=0;entryX=0.5;entryY=0;entryDx=0;entryDy=0;" edge="1" parent="1" source="Xd-AMBOE0FcjAjWwS7xK-19" target="Xd-AMBOE0FcjAjWwS7xK-22">
          <mxGeometry relative="1" as="geometry" />
        </mxCell>
        <mxCell id="Xd-AMBOE0FcjAjWwS7xK-24" value="Case closure" style="edgeLabel;html=1;align=center;verticalAlign=middle;resizable=0;points=[];" vertex="1" connectable="0" parent="Xd-AMBOE0FcjAjWwS7xK-23">
          <mxGeometry x="-0.2393" relative="1" as="geometry">
            <mxPoint y="-1" as="offset" />
          </mxGeometry>
        </mxCell>
        <mxCell id="Xd-AMBOE0FcjAjWwS7xK-19" value="Case Closure" style="html=1;align=center;verticalAlign=top;rounded=1;absoluteArcSize=1;arcSize=10;dashed=0;whiteSpace=wrap;" vertex="1" parent="1">
          <mxGeometry x="414" y="700" width="89" height="30" as="geometry" />
        </mxCell>
        <mxCell id="Xd-AMBOE0FcjAjWwS7xK-22" value="" style="ellipse;html=1;shape=endState;fillColor=strokeColor;" vertex="1" parent="1">
          <mxGeometry x="440" y="790" width="30" height="30" as="geometry" />
        </mxCell>
        <mxCell id="Xd-AMBOE0FcjAjWwS7xK-27" style="edgeStyle=orthogonalEdgeStyle;rounded=0;orthogonalLoop=1;jettySize=auto;html=1;exitX=0.5;exitY=1;exitDx=0;exitDy=0;entryX=0;entryY=0.75;entryDx=0;entryDy=0;" edge="1" parent="1" source="Xd-AMBOE0FcjAjWwS7xK-25" target="Xd-AMBOE0FcjAjWwS7xK-13">
          <mxGeometry relative="1" as="geometry" />
        </mxCell>
        <mxCell id="Xd-AMBOE0FcjAjWwS7xK-29" value="Rejoin Process" style="edgeLabel;html=1;align=center;verticalAlign=middle;resizable=0;points=[];" vertex="1" connectable="0" parent="Xd-AMBOE0FcjAjWwS7xK-27">
          <mxGeometry x="0.1557" y="1" relative="1" as="geometry">
            <mxPoint x="-1" as="offset" />
          </mxGeometry>
        </mxCell>
        <mxCell id="Xd-AMBOE0FcjAjWwS7xK-25" value="Escalation" style="html=1;align=center;verticalAlign=top;rounded=1;absoluteArcSize=1;arcSize=10;dashed=0;whiteSpace=wrap;" vertex="1" parent="1">
          <mxGeometry x="300" y="350" width="90" height="30" as="geometry" />
        </mxCell>
      </root>
    </mxGraphModel>
  </diagram>
</mxfile>
